<svg width="36" height="40" viewBox="0 0 36 40" fill="none" xmlns="http://www.w3.org/2000/svg">
<path d="M32.565 14.5167C34.44 12.4333 33.585 9.99998 32.565 8.81665L28.065 3.81665C26.175 1.73332 24 2.68332 22.935 3.81665L20.385 6.66665H16.5C13.65 6.66665 12 8.33332 11.16 10.25L4.50002 17.65V24.3167L3.43502 25.4833C1.56002 27.5833 2.41502 30 3.43502 31.1833L7.93502 36.1833C8.74502 37.0833 9.61502 37.4167 10.44 37.4167C11.505 37.4167 12.48 36.8333 13.065 36.1833L17.115 31.6667H22.5C25.05 31.6667 26.34 29.9 26.805 28.1667C28.5 27.6667 29.43 26.2333 29.805 24.8333C32.13 24.1667 33 21.7167 33 20V15H32.115L32.565 14.5167ZM30 20C30 20.75 29.715 21.6667 28.5 21.6667H27V23.3333C27 24.0833 26.715 25 25.5 25H24V26.6667C24 27.4167 23.715 28.3333 22.5 28.3333H15.885L10.965 33.8C10.5 34.2833 10.23 34 10.065 33.8167L5.58002 28.85C5.14502 28.3333 5.40002 28.0333 5.56502 27.85L7.50002 25.6833V19.0167L10.5 15.6833V18.3333C10.5 20.35 11.7 23.3333 15 23.3333C18.3 23.3333 19.5 20.35 19.5 18.3333H30V20ZM30.435 12.15L27.885 15H16.5V18.3333C16.5 19.0833 16.215 20 15 20C13.785 20 13.5 19.0833 13.5 18.3333V13.3333C13.5 12.5667 13.755 9.99998 16.5 9.99998H21.615L25.035 6.19998C25.5 5.71665 25.77 5.99998 25.935 6.18332L30.42 11.15C30.855 11.6667 30.6 11.9667 30.435 12.15Z" fill="#95FA15"/>
</svg>
