<svg width="26" height="34" viewBox="0 0 26 34" fill="none" xmlns="http://www.w3.org/2000/svg">
<path d="M18.582 21.3836H17.4077L16.9914 20.8588C18.4483 18.6427 19.3253 15.7656 19.3253 12.6358C19.3253 5.65695 14.9994 0 9.66266 0C4.3259 0 0 5.65695 0 12.6358C0 19.6146 4.3259 25.2716 9.66266 25.2716C12.056 25.2716 14.2561 24.1246 15.9508 22.2196L16.3522 22.7639V24.2996L23.785 34L26 31.1035L18.582 21.3836ZM9.66266 21.3836C5.96112 21.3836 2.97313 17.4763 2.97313 12.6358C2.97313 7.79531 5.96112 3.88794 9.66266 3.88794C13.3642 3.88794 16.3522 7.79531 16.3522 12.6358C16.3522 17.4763 13.3642 21.3836 9.66266 21.3836Z" fill="white"/>
</svg>
